<mxfile host="app.diagrams.net" modified="2024-08-10T13:03:39.164Z" agent="Mozilla/5.0 (X11; Linux x86_64) AppleWebKit/537.36 (KHTML, like Gecko) Chrome/127.0.0.0 Safari/537.36" etag="Rfbh8HOSOraAnZ1urKcT" version="24.6.4" type="device">
  <diagram name="Seite-1" id="ze5lGPQOSoFRUzEuZ323">
    <mxGraphModel dx="773" dy="452" grid="1" gridSize="10" guides="1" tooltips="1" connect="1" arrows="1" fold="1" page="1" pageScale="1" pageWidth="827" pageHeight="1169" math="0" shadow="0">
      <root>
        <mxCell id="0" />
        <mxCell id="1" parent="0" />
        <mxCell id="Goo79HlIBXIVMonAhowD-9" value="&lt;b&gt;Internal Network&lt;/b&gt;" style="rounded=1;whiteSpace=wrap;html=1;fillColor=#dae8fc;strokeColor=#6c8ebf;verticalAlign=bottom;" vertex="1" parent="1">
          <mxGeometry x="510" y="110" width="220" height="170" as="geometry" />
        </mxCell>
        <mxCell id="Goo79HlIBXIVMonAhowD-6" value="&lt;b&gt;Internal Network&lt;/b&gt;" style="rounded=1;whiteSpace=wrap;html=1;fillColor=#d5e8d4;strokeColor=#82b366;verticalAlign=bottom;" vertex="1" parent="1">
          <mxGeometry x="80" y="110" width="220" height="170" as="geometry" />
        </mxCell>
        <mxCell id="Goo79HlIBXIVMonAhowD-1" value="&lt;b&gt;&lt;font style=&quot;font-size: 16px;&quot;&gt;Internet&lt;/font&gt;&lt;/b&gt;" style="ellipse;shape=cloud;whiteSpace=wrap;html=1;fillColor=#f5f5f5;fontColor=#333333;strokeColor=#666666;" vertex="1" parent="1">
          <mxGeometry x="340" y="136.79999999999998" width="120" height="80" as="geometry" />
        </mxCell>
        <mxCell id="Goo79HlIBXIVMonAhowD-3" value="&lt;b style=&quot;font-size: 14px;&quot;&gt;&lt;font style=&quot;font-size: 14px;&quot;&gt;Forward&lt;/font&gt;&lt;/b&gt;&lt;div style=&quot;font-size: 14px;&quot;&gt;&lt;b style=&quot;&quot;&gt;&lt;font style=&quot;font-size: 14px;&quot;&gt;Proxy&lt;/font&gt;&lt;/b&gt;&lt;/div&gt;" style="image;points=[];aspect=fixed;html=1;align=center;shadow=0;dashed=0;image=img/lib/allied_telesis/computer_and_terminals/Server_Desktop.svg;labelBackgroundColor=none;" vertex="1" parent="1">
          <mxGeometry x="240" y="136.8" width="42.599999999999994" height="54" as="geometry" />
        </mxCell>
        <mxCell id="Goo79HlIBXIVMonAhowD-4" value="&lt;b&gt;&lt;font style=&quot;font-size: 14px;&quot;&gt;Client&lt;/font&gt;&lt;/b&gt;" style="image;points=[];aspect=fixed;html=1;align=center;shadow=0;dashed=0;image=img/lib/allied_telesis/computer_and_terminals/Personal_Computer_with_Server.svg;imageBackground=none;labelBackgroundColor=none;" vertex="1" parent="1">
          <mxGeometry x="100" y="128.4" width="62.400000000000006" height="62.400000000000006" as="geometry" />
        </mxCell>
        <mxCell id="Goo79HlIBXIVMonAhowD-5" value="&lt;font style=&quot;font-size: 14px;&quot;&gt;&lt;b&gt;Forward&lt;/b&gt;&lt;/font&gt;&lt;div style=&quot;font-size: 14px;&quot;&gt;&lt;font style=&quot;font-size: 14px;&quot;&gt;&lt;b&gt;Proxy&lt;/b&gt;&lt;/font&gt;&lt;/div&gt;" style="image;points=[];aspect=fixed;html=1;align=center;shadow=0;dashed=0;image=img/lib/allied_telesis/computer_and_terminals/Server_Desktop.svg;labelBackgroundColor=none;" vertex="1" parent="1">
          <mxGeometry x="540" y="136.79999999999998" width="42.599999999999994" height="54" as="geometry" />
        </mxCell>
        <mxCell id="Goo79HlIBXIVMonAhowD-8" value="&lt;b&gt;&lt;font style=&quot;font-size: 14px;&quot;&gt;Server&lt;/font&gt;&lt;/b&gt;" style="image;points=[];aspect=fixed;html=1;align=center;shadow=0;dashed=0;image=img/lib/allied_telesis/computer_and_terminals/Server_Desktop.svg;labelBackgroundColor=none;" vertex="1" parent="1">
          <mxGeometry x="660" y="136.79999999999998" width="42.599999999999994" height="54" as="geometry" />
        </mxCell>
        <mxCell id="Goo79HlIBXIVMonAhowD-11" value="" style="endArrow=classic;startArrow=classic;html=1;rounded=0;strokeWidth=4;" edge="1" parent="1">
          <mxGeometry width="50" height="50" relative="1" as="geometry">
            <mxPoint x="170" y="180" as="sourcePoint" />
            <mxPoint x="230" y="180" as="targetPoint" />
          </mxGeometry>
        </mxCell>
        <mxCell id="Goo79HlIBXIVMonAhowD-12" value="" style="endArrow=classic;startArrow=classic;html=1;rounded=0;strokeWidth=4;" edge="1" parent="1">
          <mxGeometry width="50" height="50" relative="1" as="geometry">
            <mxPoint x="590" y="180" as="sourcePoint" />
            <mxPoint x="650" y="180" as="targetPoint" />
          </mxGeometry>
        </mxCell>
        <mxCell id="Goo79HlIBXIVMonAhowD-13" value="" style="endArrow=classic;startArrow=classic;html=1;rounded=0;strokeWidth=4;" edge="1" parent="1">
          <mxGeometry width="50" height="50" relative="1" as="geometry">
            <mxPoint x="290" y="180" as="sourcePoint" />
            <mxPoint x="350" y="180" as="targetPoint" />
          </mxGeometry>
        </mxCell>
        <mxCell id="Goo79HlIBXIVMonAhowD-14" value="" style="endArrow=classic;startArrow=classic;html=1;rounded=0;strokeWidth=4;" edge="1" parent="1">
          <mxGeometry width="50" height="50" relative="1" as="geometry">
            <mxPoint x="460" y="180" as="sourcePoint" />
            <mxPoint x="520" y="180" as="targetPoint" />
          </mxGeometry>
        </mxCell>
      </root>
    </mxGraphModel>
  </diagram>
</mxfile>
